<svg width="803" height="800" viewBox="0 0 803 800" fill="none" xmlns="http://www.w3.org/2000/svg">
<path d="M339.301 1.99996C337.168 3.19996 334.634 5.06663 333.701 6.39996C332.234 8.26663 323.968 40.2666 318.901 63.2L317.834 68.2666L295.834 76C263.701 87.0666 244.234 95.8666 219.434 110.667C213.168 114.267 207.301 117.333 206.368 117.333C205.434 117.333 193.701 110.133 180.501 101.333C151.434 82.1333 150.634 82 138.901 91.7333C121.434 106.4 82.7677 150.8 66.9011 174.4C60.1011 184.4 59.5677 189.867 64.3677 195.6C66.1011 197.733 76.1011 206.267 86.3677 214.667C96.7677 223.067 105.168 230.8 105.168 231.733C105.168 232.667 101.968 239.867 97.9677 247.733C88.5011 266.667 84.5011 276.8 77.1677 300.667L70.9011 320.667L65.0344 322.133C61.8344 323.067 47.8344 326.4 33.8344 329.467C13.0344 334.267 7.83439 335.867 4.50106 338.933L0.501057 342.4L0.101057 399.6C-0.16561 451.867 -0.0322768 457.067 2.10106 461.333C5.03439 466.933 5.56772 467.2 43.0344 475.733L70.9011 482L77.1677 502.4C84.6344 526.8 88.6344 537.067 97.9677 557.067C101.834 565.333 104.768 572.8 104.368 573.733C103.968 574.667 94.7677 582.8 83.8344 592C63.7011 608.933 61.1677 611.867 61.1677 618.533C61.1677 624 76.7677 646.133 94.1011 665.067L100.501 672.267L105.434 665.467C115.301 652.267 132.101 640.533 150.901 634C159.834 630.8 161.968 629.333 166.901 623.467C169.968 619.733 180.768 606.8 190.901 594.933C203.168 580.267 208.901 572.533 208.101 571.6C207.434 570.667 203.568 565.733 199.568 560.667C187.168 545.067 178.768 531.467 169.834 512.933C154.368 480.933 147.834 456 145.034 419.333C141.834 378.533 149.834 332.4 166.234 295.333C170.901 285.067 171.034 284 171.168 268C171.568 240.8 175.701 232.4 203.968 201.733C240.368 162.4 245.968 157.6 262.501 151.867C273.168 148.133 295.301 147.733 305.568 151.067C311.301 152.933 312.634 152.933 317.568 151.2C320.634 150.133 327.968 148 333.834 146.533C357.568 140.4 364.901 139.6 397.568 139.333L429.301 139.2L434.501 130.667C447.568 109.333 463.701 92.6666 483.168 80.2666C495.701 72.2666 495.568 72.4 489.568 70.8L484.234 69.3333L477.168 40.4C473.301 24.4 469.301 9.59996 468.234 7.59996C464.501 0.266628 462.501 -3.91304e-05 400.234 -3.91304e-05C351.834 -3.91304e-05 342.634 0.266628 339.301 1.99996Z" fill="#2D3729"/>
<path d="M581.301 66.8C548.101 70.6666 511.701 85.0666 487.035 104.133C477.435 111.467 463.435 126.533 457.568 135.733C436.368 168.8 431.835 201.067 442.101 246.533C444.501 257.467 445.701 267.467 446.101 280.667C447.168 308.667 443.435 327.467 433.568 343.6C430.768 348.133 409.301 374.267 385.835 401.467C362.368 428.8 325.568 471.867 303.968 497.2C216.101 600.533 187.168 634.267 180.901 640.8C177.035 644.667 171.301 648.933 167.435 650.667C137.301 663.867 127.701 671.067 119.968 686.933C108.368 710.667 110.235 737.067 125.035 758.267C135.568 773.2 148.368 782 165.968 786.133C182.901 790.133 206.501 786.267 219.835 777.333C236.501 766.267 247.035 750.533 252.501 728.533C254.235 721.6 257.035 713.6 258.768 710.667C262.101 705.067 276.635 686.933 360.368 584C451.168 472.4 507.701 404 517.701 393.6C533.035 377.733 547.301 368.133 568.235 359.867C571.968 358.267 587.701 354.133 602.901 350.533C618.235 346.933 636.768 341.6 644.368 338.667C684.368 323.067 716.368 287.467 729.701 244C736.235 222.267 738.501 198.533 735.835 179.467C733.701 165.333 733.568 165.2 723.301 176.933C718.235 182.667 700.101 203.067 682.768 222.267L651.435 257.2L636.635 244.267C628.501 237.2 604.235 216 582.901 197.467L543.835 163.467V153.733V144L571.435 113.067C586.501 96 601.835 78.9333 605.435 75.3333C608.901 71.6 611.835 67.8666 611.835 66.9333C611.835 65.0666 597.035 64.9333 581.301 66.8ZM528.501 218.8C531.035 221.067 533.168 223.467 533.168 224.133C533.168 224.933 522.635 238 509.701 253.467L486.235 281.467L480.768 276.933C477.701 274.4 475.168 271.733 475.168 270.933C475.168 269.2 521.301 214.667 522.768 214.667C523.301 214.667 525.835 216.533 528.501 218.8ZM552.501 239.333L557.835 243.867L555.035 246.933C553.568 248.667 542.501 261.6 530.635 275.6L509.035 301.333L503.168 296.4C499.568 293.467 497.701 290.933 498.235 290C500.768 285.6 544.635 234.8 545.835 234.8C546.635 234.8 549.568 236.8 552.501 239.333ZM575.035 258C577.835 260.533 579.835 263.333 579.435 264.267C578.635 266.267 533.168 320.533 531.968 320.933C531.568 321.067 528.635 319.067 525.568 316.267L519.835 311.333L544.101 282.267C557.435 266.4 568.768 253.333 569.168 253.333C569.568 253.467 572.101 255.467 575.035 258ZM597.835 278.8C600.501 281.2 602.368 283.867 601.968 284.8C601.568 285.867 590.635 298.933 577.701 314L554.235 341.333L548.368 336.533C543.301 332.4 542.768 331.467 544.235 329.467C548.635 323.2 591.035 274.667 591.968 274.667C592.635 274.667 595.168 276.533 597.835 278.8ZM487.701 338.667C493.568 340.267 500.635 347.2 502.501 352.8C505.301 361.333 498.635 374.4 489.035 379.467C484.635 381.733 483.968 380.133 487.835 376.667C494.768 370.4 493.968 357.867 486.368 354C477.701 349.467 471.968 352.533 457.568 369.467C430.235 401.867 400.635 434.667 398.901 434.667C396.101 434.667 396.635 434 428.501 391.333C460.368 348.8 465.301 343.067 472.501 339.867C478.635 337.067 481.435 336.8 487.701 338.667ZM178.368 667.867C180.635 669.333 179.168 672 175.968 672C171.168 672 157.568 677.6 151.435 682.133C140.368 690.133 134.101 702 131.168 720.267C130.635 723.467 129.701 725.333 128.501 725.333C125.701 725.333 125.835 713.333 128.635 703.867C131.568 694.133 136.101 686.667 143.035 680.267C149.968 673.867 154.768 671.2 164.101 668.8C172.501 666.533 175.835 666.267 178.368 667.867ZM197.835 687.2C205.301 690.667 213.301 698.8 216.635 706.267C217.968 709.2 218.901 714.933 218.901 720C219.168 759.2 166.901 771.733 149.701 736.667C139.835 716.4 150.501 691.733 171.835 685.2C179.035 683.067 190.901 683.867 197.835 687.2Z" fill="#2D3729"/>
<path d="M269.301 172.533C265.968 173.333 263.168 174.667 263.035 175.333C262.901 176.133 273.168 186 285.835 197.333C298.501 208.667 309.035 218.933 309.035 220C309.168 221.867 297.168 276.133 296.501 277.067C296.235 277.333 285.301 281.6 271.968 286.533L247.835 295.733L233.435 282.8C225.568 275.733 214.101 265.467 207.835 260.133L196.501 250.133L194.901 255.467C189.168 274.667 196.901 301.733 213.301 319.2C227.968 334.933 242.901 341.867 266.368 344C308.901 348 314.368 350.933 346.501 386.533L357.835 398.933L372.768 381.867L387.701 364.667L373.435 351.333C365.568 344 354.768 333.867 349.435 328.667L339.568 319.2L345.435 312.933L351.168 306.533L374.901 328.8C387.968 341.067 399.168 350.533 399.701 349.867C410.901 336.8 414.501 332.267 414.501 331.2C414.501 330.533 407.301 323.467 398.635 315.467C369.835 289.067 367.701 284.667 363.835 243.733C360.368 205.467 337.168 178.533 301.968 171.867C293.301 170.267 276.635 170.533 269.301 172.533Z" fill="#2D3729"/>
<path d="M720.901 308.933C705.835 328.133 686.368 344 667.435 352.667C656.635 357.6 655.835 358.267 656.368 361.467C663.568 401.2 658.768 447.867 643.435 489.6L638.635 502.533L671.968 527.333C690.235 540.933 705.568 552 706.235 552C707.968 552 721.968 515.467 727.035 498L731.568 482L761.835 475.067C794.768 467.6 799.301 466.133 801.168 462.533C801.968 461.2 802.501 436.533 802.501 401.6C802.501 345.733 802.368 342.933 799.968 339.733C796.901 335.867 795.835 335.6 759.701 327.2L732.235 320.933L729.968 311.2C728.635 305.733 727.435 301.333 727.301 301.333C727.035 301.333 724.235 304.8 720.901 308.933Z" fill="#2D3729"/>
<path d="M479.568 474.133C461.701 495.867 446.768 514.4 446.234 515.2C445.701 516.267 455.701 530.667 472.234 552.8C487.168 572.533 515.834 610.533 535.968 637.333C555.968 664 573.168 686.8 573.968 687.733C575.034 689.333 576.101 689.2 579.968 686.8C582.501 685.333 585.301 684 586.234 684C587.168 684 600.368 692.4 615.434 702.667C640.234 719.467 643.568 721.333 648.634 721.333C653.568 721.333 655.568 720.4 662.101 714.933C677.701 701.867 706.634 669.333 727.834 641.2C741.834 622.667 743.968 617.6 741.168 610.667C739.301 606.133 734.234 602.133 651.168 539.6C617.434 514.133 573.968 481.333 554.501 466.533C535.034 451.867 517.568 438.533 515.568 437.2L512.101 434.667L479.568 474.133ZM520.901 484.933C533.834 494.533 533.834 513.467 520.901 521.333C515.034 524.933 503.301 524.933 497.968 521.333C489.168 515.6 485.568 503.867 489.701 494.267C494.634 482.533 511.034 477.6 520.901 484.933ZM565.834 526.4C576.768 531.733 581.701 540.533 580.901 553.333C580.101 569.2 570.368 578.8 554.368 579.733C543.834 580.4 537.034 577.467 530.634 569.733C511.434 546.533 538.634 512.933 565.834 526.4ZM606.368 582.4C612.634 585.467 615.968 590.533 616.768 597.6C619.168 618.533 591.834 628.267 580.234 610.8C571.568 598 581.568 580 597.168 580C599.701 580 603.834 581.067 606.368 582.4Z" fill="#2D3729"/>
<path d="M499.168 640.8C478.901 649.067 447.435 656 417.968 658.667C397.835 660.533 377.168 659.067 351.835 653.867C335.568 650.667 335.168 650.533 333.168 653.067C314.101 676.8 281.701 717.867 281.435 718.667C281.035 719.733 305.168 728 314.101 730L318.368 730.8L325.835 762.133C332.768 790.8 333.701 793.6 337.435 796.667L341.435 800H399.835C440.101 800 459.435 799.6 461.701 798.533C466.768 796.133 468.901 790.667 476.235 760.133L483.168 731.467L497.168 727.2C517.168 721.2 554.501 707.067 556.901 704.667C557.568 704.133 509.435 638.133 508.101 637.733C507.568 637.733 503.568 639.067 499.168 640.8Z" fill="#2D3729"/>
</svg>
