<svg width="1019" height="297" viewBox="0 0 1019 297" fill="none" xmlns="http://www.w3.org/2000/svg">
<path d="M207.806 0.548945C194.154 2.13897 179.186 8.06046 169.043 15.901C165.095 18.9165 159.338 25.1122 156.925 28.8953C148.208 42.4928 146.343 55.7613 150.565 74.4579C151.552 78.9538 152.046 83.066 152.21 88.494C152.649 100.008 151.114 107.739 147.056 114.373C145.905 116.237 137.077 126.984 127.428 138.169C117.778 149.409 102.645 167.118 93.7629 177.536C57.6308 220.028 45.733 233.899 43.1561 236.586C41.5661 238.176 39.2084 239.931 37.6184 240.643C25.2271 246.071 21.2795 249.032 18.0994 255.557C13.3293 265.316 14.0969 276.172 20.1829 284.89C24.5144 291.031 29.7779 294.65 37.0153 296.349C43.9785 297.994 53.6832 296.404 59.166 292.731C66.0196 288.18 70.3511 281.71 72.599 272.663C73.3118 269.812 74.4632 266.522 75.176 265.316C76.5467 263.013 82.523 255.557 116.955 213.229C154.294 167.338 177.541 139.21 181.653 134.934C187.958 128.409 193.825 124.462 202.433 121.062C203.968 120.404 210.438 118.705 216.689 117.224C222.994 115.744 230.615 113.551 233.74 112.344C250.189 105.93 263.348 91.2903 268.831 73.4161C271.517 64.4791 272.449 54.7196 271.353 46.8791C270.475 41.0673 270.421 41.0124 266.199 45.8374C264.115 48.195 256.659 56.5838 249.531 64.4791L236.646 78.8442L230.56 73.5258C227.216 70.6199 217.237 61.9021 208.464 54.281L192.4 40.2997V36.2972V32.2947L203.749 19.5745C209.945 12.5564 216.25 5.53835 217.73 4.05798C219.156 2.52277 220.362 0.987574 220.362 0.603774C220.362 -0.163827 214.276 -0.218655 207.806 0.548945ZM186.094 63.0535C187.136 63.9856 188.013 64.9725 188.013 65.2467C188.013 65.5757 183.682 70.9489 178.363 77.309L168.714 88.823L166.466 86.9588C165.205 85.9171 164.163 84.8205 164.163 84.4915C164.163 83.7788 183.133 61.3539 183.737 61.3539C183.956 61.3539 184.998 62.1215 186.094 63.0535ZM195.963 71.4971L198.157 73.3613L197.005 74.6224C196.402 75.3351 191.851 80.6535 186.971 86.4105L178.089 96.9924L175.677 94.9638C174.196 93.7576 173.429 92.7158 173.648 92.332C174.69 90.5227 192.728 69.633 193.222 69.633C193.551 69.633 194.757 70.4554 195.963 71.4971ZM205.229 79.1732C206.381 80.2149 207.203 81.3663 207.039 81.7501C206.71 82.5725 188.013 104.888 187.52 105.052C187.355 105.107 186.149 104.285 184.888 103.133L182.53 101.105L192.509 89.152C197.992 82.6274 202.652 77.2541 202.817 77.2541C202.981 77.309 204.023 78.1314 205.229 79.1732ZM214.605 87.7264C215.702 88.7133 216.469 89.8099 216.305 90.1937C216.14 90.6323 211.644 96.0055 206.326 102.201L196.676 113.441L194.264 111.467C192.18 109.768 191.961 109.384 192.564 108.561C194.373 105.984 211.809 86.0267 212.193 86.0267C212.467 86.0267 213.509 86.7943 214.605 87.7264ZM169.317 112.344C171.729 113.002 174.635 115.853 175.403 118.156C176.554 121.665 173.813 127.039 169.865 129.122C168.056 130.054 167.781 129.396 169.371 127.971C172.223 125.394 171.894 120.24 168.768 118.65C165.205 116.786 162.847 118.047 156.925 125.01C145.686 138.333 133.514 151.821 132.801 151.821C131.649 151.821 131.869 151.547 144.973 134.002C158.077 116.511 160.105 114.154 163.066 112.838C165.588 111.687 166.74 111.577 169.317 112.344ZM42.1143 247.716C43.0464 248.319 42.4433 249.416 41.1274 249.416C39.1536 249.416 33.5611 251.719 31.039 253.583C26.4882 256.873 23.9112 261.752 22.705 269.264C22.4857 270.58 22.1019 271.347 21.6084 271.347C20.457 271.347 20.5119 266.413 21.6633 262.52C22.8695 258.517 24.7337 255.447 27.5848 252.815C30.4358 250.184 32.4097 249.087 36.2477 248.1C39.7019 247.168 41.0726 247.058 42.1143 247.716ZM50.1193 255.666C53.1897 257.092 56.4794 260.436 57.8501 263.507C58.3984 264.713 58.7822 267.071 58.7822 269.154C58.8919 285.274 37.3991 290.428 30.3262 276.008C26.2689 267.674 30.6552 257.531 39.4277 254.844C42.3885 253.967 47.2682 254.296 50.1193 255.666Z" fill="#293237"/>
<path fill-rule="evenodd" clip-rule="evenodd" d="M79.2015 68.6952C70.4115 63.2924 57.9266 59.8409 46.8675 59.7431C41.6253 59.6854 36.7611 60.253 36.8272 60.8674C36.8602 61.1746 37.9574 62.2996 39.2301 63.4057C40.5419 64.4633 46.1905 69.538 51.7515 74.6222L61.9266 83.8269L62.2712 87.0305L62.6158 90.2342L50.9672 102.807C47.0092 107.072 42.7143 111.716 39.4495 115.247C37.4664 117.391 35.8633 119.125 34.9467 120.113L30.5356 124.893L18.9906 114.504C12.6085 108.798 5.92066 102.725 4.05082 101.017C0.257841 97.5188 0.218697 97.5674 0.0172403 102.295C-0.185015 108.665 1.40094 116.396 4.31975 123.318C10.2451 137.153 22.033 147.738 35.7447 151.457C38.3488 152.154 44.6348 153.253 49.8067 153.896C54.9347 154.543 60.2571 155.346 61.5419 155.741C68.7213 157.721 73.7547 160.376 79.3609 165.056C80.4899 166.003 83.2729 168.612 87.5758 172.752L100.585 157.169C99.8186 156.443 99.0519 155.714 98.2894 154.985C92.9525 149.921 90.9578 149.114 88.2671 150.913C85.9037 152.455 86.0842 156.608 88.587 158.425C89.9819 159.43 89.8192 159.98 88.2914 159.389C84.9538 158.062 82.2979 153.997 82.917 151.089C83.3328 149.18 85.4122 146.648 87.2856 145.913C89.2811 145.077 90.2117 145.066 92.3286 145.77C94.319 146.411 95.8875 147.639 102.614 154.738L107.898 148.408C106.521 147.018 105.591 146.035 105.269 145.621C101.452 140.66 99.5583 134.605 98.9179 125.351C98.5821 120.992 98.6229 117.658 99.0254 113.975C100.793 98.6465 98.1595 88.1867 90.0143 78.0533C87.7585 75.2328 82.6193 70.7691 79.2015 68.6952ZM148.415 186.93L127.539 211.937C130.832 215.194 134.275 218.602 137.862 222.157C169.053 253.073 174.476 258.527 175.771 260.252C176.445 261.157 177.65 263.691 178.466 265.911C181.043 272.959 185.065 277.765 190.94 280.817C195.643 283.286 203.544 283.724 208.973 281.808C214.617 279.824 218.516 276.475 221.453 271.187C225.571 263.686 225.251 254.93 220.594 247.529C217.488 242.58 214.075 240.55 203.694 237.272C202.361 236.838 200.324 235.637 198.915 234.501C196.622 232.572 185.909 222.493 153.344 191.591C151.87 190.196 150.205 188.622 148.415 186.93ZM68.2728 109.825C68.2492 109.605 68.8661 108.74 69.6192 107.904C70.4163 107.064 71.1836 106.36 71.3591 106.341C71.8416 106.289 88.9494 122.605 89.0108 123.176C89.0391 123.439 88.3001 124.407 87.3809 125.349L85.743 127.035L77.0315 118.649C72.229 114.016 68.3011 110.088 68.2728 109.825ZM60.8565 117.193L62.4506 115.512C63.3259 114.574 64.2201 113.812 64.4833 113.784C64.8781 113.741 81.1081 128.909 82.0973 130.268C82.3058 130.556 81.7813 131.456 80.7009 132.549L78.9455 134.38L70.9284 126.675C67.7747 123.673 64.7756 120.837 63.1296 119.28C62.4793 118.665 62.0402 118.25 61.8862 118.103L60.8565 117.193ZM54.4727 124.671C54.308 124.378 54.8669 123.386 55.6983 122.453C56.5737 121.515 57.3363 120.768 57.4632 120.709C57.5948 120.695 61.7859 124.595 66.7341 129.346L75.7465 138.054L74.035 139.881C73.1252 140.911 72.231 141.673 72.0947 141.643C71.6857 141.554 54.8067 125.301 54.4727 124.671ZM47.7865 132.227C47.6219 131.934 48.1416 130.99 48.9339 130.106C49.7309 129.266 50.4983 128.562 50.7176 128.538C51.0247 128.505 66.6919 142.979 68.3613 144.886C68.9146 145.492 68.7722 145.818 67.2516 147.358L65.4915 149.145L56.8037 140.979C52.0154 136.478 47.9559 132.564 47.7865 132.227ZM201.642 244.596C200.59 244.709 200.013 243.883 200.706 243.32C201.483 242.704 202.589 242.674 205.433 243.122C208.588 243.582 210.262 244.29 212.77 246.151C215.277 248.012 217.033 250.309 218.342 253.409C219.599 256.426 220.067 260.371 219.146 260.47C218.752 260.513 218.378 259.931 218.09 258.897C216.478 252.988 213.996 249.304 210.072 247.063C207.894 245.788 203.221 244.426 201.642 244.596ZM189.477 257.313C190.309 254.738 192.653 251.778 194.987 250.372C197.15 249.03 201.025 248.347 203.469 248.794C210.719 250.189 215.102 257.931 212.573 264.951C208.156 277.101 190.517 274.825 189.217 261.914C189.038 260.246 189.142 258.326 189.477 257.313Z" fill="#293237"/>
<rect x="86.8955" y="263.815" width="17" height="17" rx="8.5" transform="rotate(37.9207 86.8955 263.815)" fill="#293237"/>
<rect x="123.367" y="217" width="17" height="54.2855" rx="8.5" transform="rotate(37.9207 123.367 217)" fill="#293237"/>
<rect x="190.915" y="210.514" width="17" height="17" rx="8.5" transform="rotate(-47.3443 190.915 210.514)" fill="#293237"/>
<rect x="154" y="176.502" width="17" height="44.6876" rx="8.5" transform="rotate(-47.3443 154 176.502)" fill="#293237"/>
<rect x="103.684" y="130.144" width="17" height="17" rx="8.5" transform="rotate(-47.3443 103.684 130.144)" fill="#293237"/>
<rect x="10.8369" y="172.754" width="17" height="17" rx="8.5" transform="rotate(-49.409 10.8369 172.754)" fill="#293237"/>
<rect x="25.2666" y="185.118" width="17" height="40.8053" rx="8.5" transform="rotate(-49.409 25.2666 185.118)" fill="#293237"/>
<rect x="170" y="160.502" width="17" height="41.6727" rx="8.5" transform="rotate(-47.3443 170 160.502)" fill="#293237"/>
<rect x="45.1416" y="170.764" width="17" height="33.9781" rx="8.5" transform="rotate(-49.409 45.1416 170.764)" fill="#293237"/>
<rect x="141.146" y="231.328" width="17" height="47.4055" rx="8.5" transform="rotate(37.9207 141.146 231.328)" fill="#293237"/>
<path d="M326.779 176.402C318.981 176.402 311.456 175.45 304.203 173.546C297.04 171.552 291.192 169.013 286.659 165.93L295.499 146.074C299.76 148.794 304.656 151.061 310.187 152.874C315.808 154.597 321.384 155.458 326.915 155.458C330.632 155.458 333.624 155.141 335.891 154.506C338.157 153.781 339.789 152.874 340.787 151.786C341.875 150.608 342.419 149.248 342.419 147.706C342.419 145.53 341.421 143.808 339.427 142.538C337.432 141.269 334.848 140.226 331.675 139.41C328.501 138.594 324.965 137.778 321.067 136.962C317.259 136.146 313.405 135.104 309.507 133.834C305.699 132.565 302.208 130.933 299.035 128.938C295.861 126.853 293.277 124.178 291.283 120.914C289.288 117.56 288.291 113.344 288.291 108.266C288.291 102.554 289.832 97.3864 292.915 92.7624C296.088 88.1384 300.803 84.4211 307.059 81.6104C313.315 78.7997 321.112 77.3944 330.451 77.3944C336.707 77.3944 342.827 78.1197 348.811 79.5704C354.885 80.9304 360.28 82.9704 364.995 85.6904L356.699 105.682C352.165 103.234 347.677 101.421 343.235 100.242C338.792 98.9731 334.485 98.3384 330.315 98.3384C326.597 98.3384 323.605 98.7464 321.339 99.5624C319.072 100.288 317.44 101.285 316.443 102.554C315.445 103.824 314.947 105.274 314.947 106.906C314.947 108.992 315.899 110.669 317.803 111.938C319.797 113.117 322.381 114.114 325.555 114.93C328.819 115.656 332.355 116.426 336.163 117.242C340.061 118.058 343.915 119.101 347.723 120.37C351.621 121.549 355.157 123.181 358.331 125.266C361.504 127.261 364.043 129.936 365.947 133.29C367.941 136.554 368.939 140.68 368.939 145.666C368.939 151.197 367.352 156.32 364.179 161.034C361.096 165.658 356.427 169.376 350.171 172.186C344.005 174.997 336.208 176.402 326.779 176.402ZM445.025 79.2984H471.953V174.498H445.025V79.2984ZM408.305 174.498H381.377V79.2984H408.305V174.498ZM446.929 137.37H406.401V115.066H446.929V137.37ZM479.524 174.498L521.548 79.2984H548.068L590.228 174.498H562.212L529.3 92.4904H539.908L506.996 174.498H479.524ZM502.508 156.002L509.444 136.146H555.956L562.892 156.002H502.508ZM597.862 174.498V79.2984H620.03L672.526 142.674H662.054V79.2984H688.438V174.498H666.27L613.774 111.122H624.246V174.498H597.862ZM707.432 174.498V79.2984H756.12C768.632 79.2984 777.971 81.6104 784.136 86.2344C790.301 90.7677 793.384 96.7517 793.384 104.186C793.384 109.082 792.069 113.389 789.44 117.106C786.901 120.733 783.275 123.634 778.56 125.81C773.936 127.896 768.405 128.938 761.968 128.938L764.688 122.41C771.397 122.41 777.245 123.453 782.232 125.538C787.219 127.533 791.072 130.48 793.792 134.378C796.603 138.186 798.008 142.856 798.008 148.386C798.008 156.637 794.653 163.074 787.944 167.698C781.325 172.232 771.624 174.498 758.84 174.498H707.432ZM734.088 155.05H756.664C761.288 155.05 764.779 154.28 767.136 152.738C769.584 151.106 770.808 148.658 770.808 145.394C770.808 142.13 769.584 139.728 767.136 138.186C764.779 136.554 761.288 135.738 756.664 135.738H732.184V117.106H752.584C757.117 117.106 760.517 116.336 762.784 114.794C765.051 113.253 766.184 110.941 766.184 107.858C766.184 104.776 765.051 102.509 762.784 101.058C760.517 99.5171 757.117 98.7464 752.584 98.7464H734.088V155.05ZM811.956 174.498V79.2984H855.476C864.18 79.2984 871.66 80.7037 877.916 83.5144C884.262 86.3251 889.158 90.4051 892.604 95.7544C896.049 101.013 897.772 107.269 897.772 114.522C897.772 121.685 896.049 127.896 892.604 133.154C889.158 138.322 884.262 142.312 877.916 145.122C871.66 147.842 864.18 149.202 855.476 149.202H826.916L838.884 137.914V174.498H811.956ZM870.844 174.498L847.18 139.818H875.876L899.676 174.498H870.844ZM838.884 140.77L826.916 128.394H853.844C859.465 128.394 863.636 127.17 866.356 124.722C869.166 122.274 870.572 118.874 870.572 114.522C870.572 110.08 869.166 106.634 866.356 104.186C863.636 101.738 859.465 100.514 853.844 100.514H826.916L838.884 88.1384V140.77ZM960.635 176.402C953.019 176.402 945.993 175.178 939.555 172.73C933.118 170.282 927.497 166.837 922.691 162.394C917.977 157.861 914.305 152.602 911.675 146.618C909.046 140.634 907.731 134.061 907.731 126.898C907.731 119.736 909.046 113.162 911.675 107.178C914.305 101.194 917.977 95.9811 922.691 91.5384C927.497 87.0051 933.118 83.5144 939.555 81.0664C945.993 78.6184 953.019 77.3944 960.635 77.3944C968.342 77.3944 975.369 78.6184 981.715 81.0664C988.153 83.5144 993.729 87.0051 998.443 91.5384C1003.16 95.9811 1006.83 101.194 1009.46 107.178C1012.18 113.162 1013.54 119.736 1013.54 126.898C1013.54 134.061 1012.18 140.68 1009.46 146.754C1006.83 152.738 1003.16 157.952 998.443 162.394C993.729 166.837 988.153 170.282 981.715 172.73C975.369 175.178 968.342 176.402 960.635 176.402ZM960.635 154.098C964.262 154.098 967.617 153.464 970.699 152.194C973.873 150.925 976.593 149.112 978.859 146.754C981.217 144.306 983.03 141.405 984.299 138.05C985.659 134.696 986.339 130.978 986.339 126.898C986.339 122.728 985.659 119.01 984.299 115.746C983.03 112.392 981.217 109.536 978.859 107.178C976.593 104.73 973.873 102.872 970.699 101.602C967.617 100.333 964.262 99.6984 960.635 99.6984C957.009 99.6984 953.609 100.333 950.435 101.602C947.353 102.872 944.633 104.73 942.275 107.178C940.009 109.536 938.195 112.392 936.835 115.746C935.566 119.01 934.931 122.728 934.931 126.898C934.931 130.978 935.566 134.696 936.835 138.05C938.195 141.405 940.009 144.306 942.275 146.754C944.633 149.112 947.353 150.925 950.435 152.194C953.609 153.464 957.009 154.098 960.635 154.098Z" fill="#293237"/>
<path d="M307.264 229.196H319.614V234.82H307.264V229.196ZM307.796 239.684H321.704V245.498H300.348V218.898H321.21V224.712H307.796V239.684ZM335.379 245.498V218.898H342.903V239.532H355.595V245.498H335.379ZM374.988 229.196H387.338V234.82H374.988V229.196ZM375.52 239.684H389.428V245.498H368.072V218.898H388.934V224.712H375.52V239.684ZM416.365 246.03C414.263 246.03 412.312 245.701 410.513 245.042C408.74 244.358 407.195 243.396 405.877 242.154C404.585 240.913 403.572 239.456 402.837 237.784C402.103 236.087 401.735 234.225 401.735 232.198C401.735 230.172 402.103 228.322 402.837 226.65C403.572 224.953 404.585 223.484 405.877 222.242C407.195 221.001 408.74 220.051 410.513 219.392C412.312 218.708 414.263 218.366 416.365 218.366C418.823 218.366 421.014 218.797 422.939 219.658C424.89 220.52 426.511 221.761 427.803 223.382L423.015 227.714C422.154 226.701 421.204 225.928 420.165 225.396C419.152 224.864 418.012 224.598 416.745 224.598C415.656 224.598 414.655 224.776 413.743 225.13C412.831 225.485 412.046 226.004 411.387 226.688C410.754 227.347 410.247 228.145 409.867 229.082C409.513 230.02 409.335 231.058 409.335 232.198C409.335 233.338 409.513 234.377 409.867 235.314C410.247 236.252 410.754 237.062 411.387 237.746C412.046 238.405 412.831 238.912 413.743 239.266C414.655 239.621 415.656 239.798 416.745 239.798C418.012 239.798 419.152 239.532 420.165 239C421.204 238.468 422.154 237.696 423.015 236.682L427.803 241.014C426.511 242.61 424.89 243.852 422.939 244.738C421.014 245.6 418.823 246.03 416.365 246.03ZM446.097 245.498V224.864H437.927V218.898H461.753V224.864H453.621V245.498H446.097ZM474.056 245.498V218.898H486.216C488.648 218.898 490.738 219.291 492.486 220.076C494.26 220.862 495.628 222.002 496.59 223.496C497.553 224.966 498.034 226.714 498.034 228.74C498.034 230.742 497.553 232.477 496.59 233.946C495.628 235.39 494.26 236.505 492.486 237.29C490.738 238.05 488.648 238.43 486.216 238.43H478.236L481.58 235.276V245.498H474.056ZM490.51 245.498L483.898 235.808H491.916L498.566 245.498H490.51ZM481.58 236.074L478.236 232.616H485.76C487.331 232.616 488.496 232.274 489.256 231.59C490.042 230.906 490.434 229.956 490.434 228.74C490.434 227.499 490.042 226.536 489.256 225.852C488.496 225.168 487.331 224.826 485.76 224.826H478.236L481.58 221.368V236.074ZM511.685 245.498V218.898H519.209V245.498H511.685ZM547.324 246.03C545.222 246.03 543.271 245.701 541.472 245.042C539.699 244.358 538.154 243.396 536.836 242.154C535.544 240.913 534.531 239.456 533.796 237.784C533.062 236.087 532.694 234.225 532.694 232.198C532.694 230.172 533.062 228.322 533.796 226.65C534.531 224.953 535.544 223.484 536.836 222.242C538.154 221.001 539.699 220.051 541.472 219.392C543.271 218.708 545.222 218.366 547.324 218.366C549.782 218.366 551.973 218.797 553.898 219.658C555.849 220.52 557.47 221.761 558.762 223.382L553.974 227.714C553.113 226.701 552.163 225.928 551.124 225.396C550.111 224.864 548.971 224.598 547.704 224.598C546.615 224.598 545.614 224.776 544.702 225.13C543.79 225.485 543.005 226.004 542.346 226.688C541.713 227.347 541.206 228.145 540.826 229.082C540.472 230.02 540.294 231.058 540.294 232.198C540.294 233.338 540.472 234.377 540.826 235.314C541.206 236.252 541.713 237.062 542.346 237.746C543.005 238.405 543.79 238.912 544.702 239.266C545.614 239.621 546.615 239.798 547.704 239.798C548.971 239.798 550.111 239.532 551.124 239C552.163 238.468 553.113 237.696 553.974 236.682L558.762 241.014C557.47 242.61 555.849 243.852 553.898 244.738C551.973 245.6 549.782 246.03 547.324 246.03ZM567.98 245.498L579.722 218.898H587.132L598.912 245.498H591.084L581.888 222.584H584.852L575.656 245.498H567.98ZM574.402 240.33L576.34 234.782H589.336L591.274 240.33H574.402ZM610.545 245.498V218.898H618.069V239.532H630.761V245.498H610.545ZM672.917 246.03C670.89 246.03 669.079 245.714 667.483 245.08C665.887 244.422 664.62 243.522 663.683 242.382C662.771 241.242 662.315 239.963 662.315 238.544C662.315 237.151 662.619 235.91 663.227 234.82C663.86 233.731 664.823 232.73 666.115 231.818C667.432 230.906 669.104 230.032 671.131 229.196C672.473 228.614 673.525 228.094 674.285 227.638C675.045 227.182 675.577 226.752 675.881 226.346C676.21 225.916 676.375 225.485 676.375 225.054C676.375 224.522 676.197 224.092 675.843 223.762C675.488 223.433 674.956 223.268 674.247 223.268C673.512 223.268 672.929 223.458 672.499 223.838C672.093 224.218 671.891 224.687 671.891 225.244C671.891 225.574 671.954 225.903 672.081 226.232C672.233 226.562 672.511 226.942 672.917 227.372C673.347 227.803 673.943 228.36 674.703 229.044L688.725 241.508L684.849 245.954L669.041 231.856C668.179 231.096 667.47 230.362 666.913 229.652C666.381 228.943 665.975 228.234 665.697 227.524C665.443 226.815 665.317 226.093 665.317 225.358C665.317 223.99 665.684 222.8 666.419 221.786C667.153 220.748 668.192 219.95 669.535 219.392C670.877 218.81 672.448 218.518 674.247 218.518C675.893 218.518 677.325 218.772 678.541 219.278C679.782 219.785 680.745 220.52 681.429 221.482C682.113 222.445 682.455 223.585 682.455 224.902C682.455 226.068 682.151 227.132 681.543 228.094C680.96 229.057 680.048 229.944 678.807 230.754C677.591 231.565 676.033 232.363 674.133 233.148C672.967 233.63 672.03 234.111 671.321 234.592C670.637 235.074 670.143 235.568 669.839 236.074C669.535 236.556 669.383 237.113 669.383 237.746C669.383 238.253 669.547 238.722 669.877 239.152C670.206 239.583 670.675 239.925 671.283 240.178C671.891 240.406 672.613 240.52 673.449 240.52C674.918 240.52 676.273 240.166 677.515 239.456C678.756 238.722 679.82 237.658 680.707 236.264C681.619 234.871 682.239 233.186 682.569 231.21L688.383 232.958C687.825 235.568 686.812 237.848 685.343 239.798C683.899 241.749 682.113 243.282 679.985 244.396C677.882 245.486 675.526 246.03 672.917 246.03ZM722.43 245.498V218.898H734.59C737.022 218.898 739.112 219.291 740.86 220.076C742.633 220.862 744.001 222.002 744.964 223.496C745.926 224.966 746.408 226.714 746.408 228.74C746.408 230.742 745.926 232.477 744.964 233.946C744.001 235.416 742.633 236.556 740.86 237.366C739.112 238.152 737.022 238.544 734.59 238.544H726.61L729.954 235.276V245.498H722.43ZM729.954 236.074L726.61 232.616H734.134C735.704 232.616 736.87 232.274 737.63 231.59C738.415 230.906 738.808 229.956 738.808 228.74C738.808 227.499 738.415 226.536 737.63 225.852C736.87 225.168 735.704 224.826 734.134 224.826H726.61L729.954 221.368V236.074ZM759.576 245.498V218.898H767.1V239.532H779.792V245.498H759.576ZM804.284 246.03C800.357 246.03 797.292 244.954 795.088 242.8C792.884 240.647 791.782 237.594 791.782 233.642V218.898H799.306V233.414C799.306 235.694 799.749 237.328 800.636 238.316C801.548 239.304 802.789 239.798 804.36 239.798C805.93 239.798 807.159 239.304 808.046 238.316C808.932 237.328 809.376 235.694 809.376 233.414V218.898H816.786V233.642C816.786 237.594 815.684 240.647 813.48 242.8C811.276 244.954 808.21 246.03 804.284 246.03ZM831.383 245.498V218.898H837.577L848.597 236.986H845.329L856.045 218.898H862.239L862.315 245.498H855.399L855.323 229.424H856.501L848.483 242.876H845.139L836.893 229.424H838.337V245.498H831.383ZM877.139 245.498V218.898H890.743C894.239 218.898 896.848 219.544 898.571 220.836C900.293 222.103 901.155 223.775 901.155 225.852C901.155 227.22 900.787 228.424 900.053 229.462C899.343 230.476 898.33 231.286 897.013 231.894C895.721 232.477 894.175 232.768 892.377 232.768L893.137 230.944C895.011 230.944 896.645 231.236 898.039 231.818C899.432 232.376 900.509 233.199 901.269 234.288C902.054 235.352 902.447 236.657 902.447 238.202C902.447 240.508 901.509 242.306 899.635 243.598C897.785 244.865 895.075 245.498 891.503 245.498H877.139ZM884.587 240.064H890.895C892.187 240.064 893.162 239.849 893.821 239.418C894.505 238.962 894.847 238.278 894.847 237.366C894.847 236.454 894.505 235.783 893.821 235.352C893.162 234.896 892.187 234.668 890.895 234.668H884.055V229.462H889.755C891.021 229.462 891.971 229.247 892.605 228.816C893.238 228.386 893.555 227.74 893.555 226.878C893.555 226.017 893.238 225.384 892.605 224.978C891.971 224.548 891.021 224.332 889.755 224.332H884.587V240.064ZM915.844 245.498V218.898H923.368V245.498H915.844ZM938.221 245.498V218.898H944.415L959.083 236.606H956.157V218.898H963.529V245.498H957.335L942.667 227.79H945.593V245.498H938.221ZM991.636 246.03C989.533 246.03 987.582 245.701 985.784 245.042C983.985 244.358 982.427 243.396 981.11 242.154C979.818 240.913 978.804 239.456 978.07 237.784C977.335 236.087 976.968 234.225 976.968 232.198C976.968 230.172 977.335 228.322 978.07 226.65C978.804 224.953 979.83 223.484 981.148 222.242C982.465 221.001 984.023 220.051 985.822 219.392C987.646 218.708 989.634 218.366 991.788 218.366C994.296 218.366 996.538 218.784 998.514 219.62C1000.49 220.456 1002.12 221.66 1003.42 223.23L998.628 227.562C997.716 226.574 996.728 225.84 995.664 225.358C994.625 224.852 993.46 224.598 992.168 224.598C991.028 224.598 989.989 224.776 989.052 225.13C988.114 225.485 987.316 226.004 986.658 226.688C985.999 227.347 985.48 228.145 985.1 229.082C984.745 229.994 984.568 231.033 984.568 232.198C984.568 233.313 984.745 234.339 985.1 235.276C985.48 236.214 985.999 237.024 986.658 237.708C987.316 238.367 988.102 238.886 989.014 239.266C989.951 239.621 990.977 239.798 992.092 239.798C993.206 239.798 994.296 239.621 995.36 239.266C996.424 238.886 997.5 238.253 998.59 237.366L1002.81 242.648C1001.29 243.738 999.527 244.574 997.526 245.156C995.524 245.739 993.561 246.03 991.636 246.03ZM996.158 241.66V231.628H1002.81V242.648L996.158 241.66Z" fill="#293237"/>
</svg>
